<svg width="177" height="210" viewBox="0 0 177 210" fill="none" xmlns="http://www.w3.org/2000/svg">
<path opacity="0.15" d="M47.6118 14.2395C58.3241 -4.75309 85.6759 -4.75307 96.3882 14.2395L116.489 49.8781C118.998 54.3255 122.675 58.0023 127.122 60.5107L162.761 80.6118C181.753 91.3241 181.753 118.676 162.76 129.388L127.122 149.489C122.675 151.998 118.998 155.675 116.489 160.122L96.3882 195.761C85.6759 214.753 58.3241 214.753 47.6118 195.761L27.5107 160.122C25.0023 155.675 21.3255 151.998 16.8781 149.489L-18.7605 129.388C-37.7531 118.676 -37.7531 91.3241 -18.7605 80.6118L16.8781 60.5107C21.3255 58.0023 25.0023 54.3255 27.5107 49.8781L47.6118 14.2395Z" fill="#219EBC"/>
</svg>
