<svg width="137" height="210" viewBox="0 0 137 210" fill="none" xmlns="http://www.w3.org/2000/svg">
<path opacity="0.15" d="M7.61181 14.2395C18.3241 -4.75309 45.6759 -4.75307 56.3882 14.2395L76.4893 49.8781C78.9977 54.3255 82.6745 58.0023 87.1219 60.5107L122.761 80.6118C141.753 91.3241 141.753 118.676 122.76 129.388L87.1219 149.489C82.6745 151.998 78.9977 155.675 76.4893 160.122L56.3882 195.761C45.6759 214.753 18.3241 214.753 7.61181 195.761L-12.4893 160.122C-14.9977 155.675 -18.6745 151.998 -23.1219 149.489L-58.7605 129.388C-77.7531 118.676 -77.7531 91.3241 -58.7605 80.6118L-23.1219 60.5107C-18.6745 58.0023 -14.9977 54.3255 -12.4893 49.8781L7.61181 14.2395Z" fill="white"/>
</svg>
