<svg width="263" height="167" viewBox="0 0 263 167" fill="none" xmlns="http://www.w3.org/2000/svg">
<path d="M140.12 0C139.606 0.443176 139.106 0.912274 138.618 1.39977L99.077 39.5873C90.9961 36.9207 85.166 29.2948 85.166 20.3033C85.1694 9.09096 94.2408 0 105.433 0H140.12Z" fill="#FFB503"/>
<path d="M177.832 70.6572C177.832 81.8721 168.76 90.9613 157.568 90.9613H122.871C123.166 90.7105 123.443 90.4596 123.719 90.1962L163.926 51.374C172 54.0456 177.832 61.6724 177.832 70.6572Z" fill="#FFB503"/>
<path d="M171.232 35.2977L171.237 35.3019L119.807 84.9711L119.762 85.0204L119.245 85.5171C118.905 85.8391 118.552 86.1434 118.191 86.4369C114.584 89.3719 110.078 90.9709 105.431 90.964C94.2395 90.964 85.168 81.8747 85.168 70.6607C85.1645 67.8276 85.7544 65.0252 86.8993 62.4348C88.0443 59.8444 89.719 57.5234 91.8151 55.622V55.6169L143.142 6.0431L143.196 5.98959C145.077 4.08843 147.316 2.5801 149.783 1.55196C152.249 0.523832 154.895 -0.00366839 157.567 1.92012e-05C168.759 1.92012e-05 177.83 9.08931 177.83 20.3033C177.833 23.1253 177.248 25.9167 176.112 28.4988C174.975 31.0809 173.313 33.3967 171.232 35.2977Z" fill="#FFB503"/>
<path d="M29.1489 147.234V152.992H0V106.507H6.28493V147.234H29.1489Z" fill="black"/>
<path d="M55.5142 120.841V125.176C54.4215 123.716 53.0151 122.52 51.399 121.677C49.5074 120.674 47.3573 120.172 44.9489 120.172C42.0113 120.172 39.3708 120.91 37.0274 122.384C34.684 123.859 32.8341 125.846 31.4777 128.345C30.1191 130.845 29.4403 133.658 29.4414 136.784C29.4425 139.91 30.1213 142.723 31.4777 145.224C32.8374 147.723 34.6873 149.699 37.0274 151.152C39.3674 152.605 42.0079 153.33 44.9489 153.326C47.3579 153.326 49.5205 152.824 51.4366 151.821C53.0407 150.992 54.4352 149.809 55.5142 148.359V152.659H61.5971V120.841H55.5142ZM53.1774 144.584C51.3492 146.619 48.9416 147.635 45.9545 147.633C43.9516 147.633 42.1693 147.163 40.6076 146.224C39.0618 145.302 37.8013 143.969 36.9665 142.372C36.0974 140.743 35.6621 138.858 35.6604 136.716C35.6604 134.617 36.0958 132.749 36.9665 131.114C37.7977 129.526 39.0457 128.196 40.5759 127.267C42.1106 126.333 43.8865 125.863 45.8902 125.863C47.894 125.863 49.6457 126.322 51.1362 127.235C52.6266 128.148 53.8017 129.436 54.6487 131.086C55.4958 132.737 55.9139 134.638 55.9139 136.78C55.9139 139.952 55.0006 142.554 53.1741 144.584H53.1774Z" fill="black"/>
<path d="M89.3151 126.333L72.1136 147.163H88.9162V152.654H64.5117V147.163L80.5733 126.333H64.5117V120.841H89.316L89.3151 126.333Z" fill="black"/>
<path d="M116.541 126.333L99.344 147.163H116.142V152.654H91.7422V147.163L107.799 126.333H91.7422V120.841H116.541L116.541 126.333Z" fill="black"/>
<path d="M132.99 153.325C129.915 153.325 127.13 152.588 124.634 151.115C122.164 149.668 120.114 147.601 118.684 145.119C117.214 142.597 116.479 139.773 116.479 136.646C116.479 133.566 117.214 130.786 118.684 128.308C120.129 125.855 122.177 123.814 124.634 122.38C127.129 120.906 129.914 120.169 132.99 120.169C136.109 120.169 138.928 120.894 141.446 122.343C143.926 123.758 145.99 125.802 147.429 128.271C148.901 130.772 149.636 133.563 149.636 136.643C149.636 139.769 148.9 142.593 147.429 145.116C145.993 147.604 143.93 149.672 141.446 151.111C138.928 152.587 136.109 153.325 132.99 153.325ZM132.99 147.497C135.04 147.497 136.844 147.028 138.404 146.091C139.955 145.163 141.225 143.832 142.081 142.239C142.972 140.609 143.417 138.745 143.417 136.646C143.417 134.593 142.96 132.762 142.046 131.154C141.175 129.59 139.906 128.285 138.369 127.37C136.832 126.455 135.038 125.997 132.988 125.997C131.027 125.997 129.267 126.454 127.707 127.37C126.16 128.272 124.889 129.581 124.03 131.154C123.14 132.762 122.695 134.593 122.695 136.646C122.695 138.746 123.14 140.61 124.03 142.239C124.886 143.833 126.157 145.164 127.707 146.091C129.267 147.028 131.028 147.497 132.99 147.497Z" fill="black"/>
<path d="M170.331 153.325C167.206 153.325 164.414 152.6 161.955 151.151C159.527 149.732 157.517 147.695 156.129 145.246C154.705 142.759 153.993 139.95 153.992 136.819C153.992 133.687 154.704 130.866 156.13 128.354C157.509 125.892 159.505 123.832 161.921 122.379C164.356 120.905 167.114 120.168 170.194 120.168C172.629 120.168 174.824 120.617 176.778 121.515C178.692 122.382 180.37 123.697 181.672 125.349C182.982 127.007 183.89 128.986 184.395 131.286V142.134C183.843 144.438 182.913 146.43 181.603 148.11C180.325 149.765 178.671 151.092 176.778 151.978C174.872 152.876 172.723 153.325 170.331 153.325ZM170.607 151.318C174.557 151.318 177.705 149.994 180.052 147.347C182.398 144.7 183.57 141.188 183.568 136.811C183.568 133.864 183.027 131.297 181.947 129.109C180.866 126.921 179.339 125.22 177.364 124.006C175.387 122.787 173.089 122.177 170.469 122.175C167.712 122.175 165.264 122.809 163.125 124.075C161.008 125.323 159.259 127.112 158.058 129.26C156.817 131.448 156.196 133.946 156.197 136.754C156.198 139.562 156.82 142.058 158.063 144.241C159.276 146.403 161.051 148.194 163.199 149.426C165.38 150.691 167.849 151.322 170.608 151.321L170.607 151.318ZM183.498 152.631V144.138L184.119 136.263L183.498 128.596V120.86H185.636V152.635L183.498 152.631Z" fill="black"/>
<path d="M193.756 166.149V120.861H195.891V128.594L195.202 136.256L195.891 144.126V166.149H193.756ZM209.534 153.309C207.144 153.309 204.951 152.848 202.953 151.927C200.982 151.029 199.24 149.695 197.855 148.027C196.453 146.348 195.477 144.38 194.927 142.125V131.28C195.478 128.933 196.465 126.931 197.889 125.274C199.299 123.628 201.067 122.329 203.057 121.477C205.103 120.597 207.308 120.151 209.534 120.165C212.565 120.165 215.264 120.89 217.629 122.339C219.994 123.788 221.866 125.767 223.244 128.276C224.622 130.784 225.311 133.627 225.311 136.805C225.311 139.935 224.633 142.742 223.279 145.227C221.969 147.664 220.029 149.702 217.663 151.13C215.275 152.581 212.565 153.306 209.534 153.306V153.309ZM209.121 151.302C211.876 151.302 214.299 150.68 216.389 149.438C218.48 148.195 220.121 146.469 221.313 144.26C222.507 142.051 223.104 139.543 223.104 136.735C223.104 133.882 222.507 131.362 221.313 129.176C220.119 126.989 218.489 125.275 216.421 124.032C214.354 122.79 211.99 122.168 209.328 122.168C206.665 122.168 204.323 122.79 202.3 124.032C200.278 125.275 198.692 126.989 197.543 129.176C196.394 131.362 195.82 133.905 195.821 136.804C195.821 139.612 196.383 142.109 197.509 144.295C198.634 146.48 200.196 148.195 202.194 149.437C204.193 150.681 206.502 151.303 209.121 151.303V151.302Z" fill="black"/>
<path d="M231.443 166.149V120.861H233.579V128.594L232.89 136.256L233.579 144.126V166.149H231.443ZM247.222 153.309C244.832 153.309 242.639 152.848 240.642 151.927C238.671 151.028 236.928 149.695 235.543 148.027C234.142 146.348 233.166 144.38 232.615 142.125V131.28C233.166 128.933 234.153 126.931 235.578 125.274C236.987 123.628 238.755 122.329 240.745 121.477C242.791 120.597 244.996 120.151 247.222 120.165C250.253 120.165 252.951 120.89 255.317 122.339C257.683 123.788 259.555 125.767 260.933 128.276C262.311 130.784 263 133.627 263 136.805C263 139.935 262.322 142.742 260.967 145.227C259.658 147.663 257.718 149.702 255.352 151.13C252.963 152.581 250.253 153.306 247.222 153.306V153.309ZM246.805 151.302C249.56 151.302 251.983 150.68 254.074 149.438C256.164 148.195 257.805 146.469 258.997 144.26C260.192 142.051 260.789 139.543 260.789 136.735C260.789 133.882 260.192 131.362 258.997 129.176C257.803 126.989 256.173 125.275 254.106 124.032C252.039 122.79 249.674 122.168 247.013 122.168C244.351 122.168 242.008 122.79 239.985 124.032C237.963 125.275 236.377 126.989 235.228 129.176C234.079 131.362 233.504 133.905 233.506 136.804C233.506 139.612 234.068 142.109 235.194 144.295C236.319 146.48 237.881 148.195 239.879 149.437C241.88 150.681 244.19 151.303 246.808 151.303L246.805 151.302Z" fill="black"/>
</svg>
